<svg width="699" height="194" viewBox="0 0 699 194" fill="none" xmlns="http://www.w3.org/2000/svg">
<path d="M125.648 3.34561C128.514 3.34561 133.731 3.34561 135.421 6.86403C135.821 7.60467 135.999 8.44416 135.935 9.28294C135.935 11.9218 133.363 13.9009 131.453 15.5868C127.356 18.9423 123.062 22.0509 118.594 24.8959C117.639 25.5556 115.582 23.6498 115.288 21.8173C115.775 25.1415 115.898 28.5087 115.655 31.8595C115.495 35.4175 114.878 38.9404 113.818 42.3414C111.453 48.4661 107.139 53.6474 101.538 57.0901C95.9364 60.5328 89.3573 62.0468 82.8102 61.3995C81.6809 61.1842 80.574 60.8652 79.5036 60.4466C71.8631 56.3862 65.8243 49.8667 62.3691 41.9483C58.9138 34.0299 58.2455 25.1783 60.4727 16.8329C61.9317 13.082 64.2793 9.73924 67.3149 7.09026C70.3505 4.44127 73.9838 2.56482 77.9045 1.62125C81.8251 0.677675 85.9165 0.695036 89.8289 1.67185C93.7414 2.64866 97.3586 4.55588 100.371 7.23053C95.5413 9.9908 91.0738 13.3394 87.0719 17.1994C84.0269 20.2096 81.2716 23.4981 78.8423 27.0216C88.8147 18.2442 100.031 10.9825 112.128 5.47132C116.447 3.87004 121.044 3.14728 125.648 3.34561Z" fill="white"/>
<path d="M111.687 81.6305V79.2115C111.693 78.6642 111.829 78.126 112.084 77.6416C112.34 77.1572 112.708 76.7406 113.157 76.4261C113.036 76.4572 112.91 76.4572 112.789 76.4261C112.451 76.0763 112.186 75.6628 112.009 75.2098C111.833 74.7568 111.748 74.2732 111.761 73.7873C111.761 73.2009 111.761 72.5412 111.761 71.9548C111.782 71.8488 111.781 71.7395 111.759 71.6337C111.737 71.5278 111.694 71.4274 111.632 71.3385C111.571 71.2496 111.492 71.174 111.4 71.1162C111.309 71.0583 111.206 71.0195 111.099 71.0019L100.225 68.0699C100.015 68.0201 99.7967 68.0221 99.5882 68.0756C99.3797 68.1291 99.1875 68.2326 99.0282 68.3771C98.8689 68.5215 98.7474 68.7026 98.6742 68.9045C98.6009 69.1065 98.5782 69.3232 98.608 69.5359C100.013 76.6694 98.619 84.0687 94.7137 90.2066C94.3463 88.6673 94.1258 88.0076 93.9789 87.3479C93.4349 80.1174 90.338 73.3137 85.239 68.1464C80.1399 62.9792 73.3692 59.7834 66.1306 59.1272C47.2349 57.0873 28.2027 61.4786 12.1239 71.5883C11.6679 72.0416 11.3292 72.5987 11.1372 73.2117C10.9452 73.8247 10.9056 74.4751 11.0218 75.1067C12.7118 81.044 14.6222 86.9081 16.5326 93.0653C29.6853 88.8139 35.8575 88.9605 44.8953 93.5051C46.5044 94.0418 47.8377 95.1879 48.6074 96.6963C49.3772 98.2046 49.5218 99.9544 49.0101 101.568C48.5693 104.552 47.8811 107.494 46.9527 110.364C45.843 114.989 43.6058 119.269 40.4397 122.823C37.2736 126.378 33.2766 129.098 28.8035 130.742C21.8702 132.767 14.5295 132.969 7.49479 131.328C4.62913 130.742 3.82087 131.328 3.45348 135.36C2.97315 139.536 2.01158 143.644 0.587822 147.601C-0.514354 150.826 -0.146962 152.145 2.57174 152.878C9.03784 154.711 15.357 157.13 21.97 158.596C31.1497 161.208 40.7793 161.852 50.2265 160.488C59.6737 159.124 68.7246 155.781 76.7849 150.679C77.3081 150.362 77.89 150.153 78.496 150.065C79.102 149.976 79.7196 150.011 80.3119 150.166C94.4932 154.711 106.691 163.36 108.16 180.953C108.16 182.419 108.16 183.811 108.16 185.497C108.232 186.171 108.547 186.797 109.048 187.256C109.548 187.714 110.199 187.975 110.879 187.989H132.555C133.235 187.975 133.886 187.714 134.386 187.256C134.887 186.797 135.202 186.171 135.274 185.497C138.066 153.905 129.616 126.857 100.371 108.972C103.898 108.972 106.764 108.972 109.63 108.972C118.142 109.869 126.736 108.392 134.455 104.703C142.175 101.015 148.716 95.26 153.349 88.0809C153.847 87.03 154.289 85.9534 154.672 84.8557H115.067C114.201 84.839 113.373 84.4982 112.747 83.9008C112.12 83.3034 111.742 82.493 111.687 81.6305Z" fill="white"/>
<path d="M180.243 77.9654H116.243C114.904 77.9654 113.818 79.0484 113.818 80.3844C113.818 81.7203 114.904 82.8033 116.243 82.8033H180.243C181.582 82.8033 182.667 81.7203 182.667 80.3844C182.667 79.0484 181.582 77.9654 180.243 77.9654Z" fill="white"/>
<path d="M157.905 35.7444L148.353 44.9803L138.727 35.4512C138.657 35.2935 138.625 35.1214 138.633 34.949C138.642 34.7766 138.691 34.6086 138.777 34.4588C138.863 34.3089 138.983 34.1813 139.128 34.0862C139.272 33.9912 139.437 33.9315 139.609 33.9119H157.244C157.46 33.9066 157.672 33.9692 157.85 34.091C158.029 34.2127 158.164 34.3874 158.237 34.5902C158.31 34.793 158.318 35.0136 158.258 35.2208C158.198 35.428 158.075 35.6112 157.905 35.7444Z" fill="white"/>
<path d="M148.353 40.7288C139.482 40.7207 130.95 44.133 124.542 50.2527C118.134 56.3723 114.344 64.7257 113.965 73.5674C113.943 73.7686 113.966 73.972 114.031 74.1636C114.096 74.3552 114.202 74.5304 114.342 74.6769C114.482 74.8234 114.652 74.9377 114.841 75.012C115.029 75.0862 115.232 75.1185 115.435 75.1067H128.808C128.769 74.6188 128.769 74.1286 128.808 73.6407C128.819 73.4498 128.777 73.2595 128.687 73.0911C128.596 72.9227 128.459 72.783 128.293 72.6878C126.692 71.7892 125.486 70.3247 124.913 68.583C124.728 67.3928 124.728 66.1814 124.913 64.9913C124.989 62.956 125.49 60.9588 126.383 59.1272C126.821 58.302 127.483 57.6162 128.293 57.1481C129.036 56.7403 129.904 56.6195 130.73 56.8087C131.557 56.998 132.285 57.4841 132.775 58.1743C133.476 59.0968 133.999 60.1406 134.319 61.2529C134.88 63.2792 135.079 65.3883 134.906 67.4835C134.821 68.3237 134.569 69.1387 134.166 69.8811C133.762 70.6235 133.215 71.2786 132.555 71.8082C132.17 72.1439 131.752 72.4387 131.306 72.6878C131.159 72.7615 131.038 72.8781 130.959 73.0222C130.88 73.1663 130.848 73.3309 130.865 73.4941C130.827 74.031 130.827 74.5699 130.865 75.1067H139.609C139.609 74.6669 139.609 74.3004 139.609 73.8606C139.677 73.6459 139.677 73.4156 139.609 73.2009L137.992 71.4417C137.562 70.9863 137.325 70.382 137.331 69.7558C137.331 67.85 137.331 66.0175 137.331 64.185C137.331 62.3524 137.699 59.567 137.919 57.2947C137.919 56.7816 137.919 56.7816 138.654 57.2947V59.6403C138.654 61.766 138.654 63.9651 138.654 66.1641V66.5306H139.021C139.061 66.2878 139.061 66.0403 139.021 65.7976C139.021 63.0854 139.021 60.3 139.021 57.5146C139.021 57.0748 139.021 57.0748 139.609 57.5146V57.9544C139.609 60.8131 139.609 63.6718 139.609 66.5306V66.8971H139.976C139.976 66.8971 139.976 66.8971 139.976 66.5306C139.976 63.6718 139.976 60.7398 139.976 57.8811C139.947 57.736 139.947 57.5864 139.976 57.4413H140.417C140.417 57.4413 140.417 57.8811 140.417 58.0277C140.417 60.8864 140.417 63.7451 140.417 66.5306V66.9704C140.417 66.9704 140.785 66.9704 140.785 66.5306C140.785 66.0908 140.785 64.7714 140.785 63.8184C140.785 62.8655 140.785 59.7869 140.785 57.8078V56.8549C141.372 56.8549 141.446 56.8549 141.446 57.2947C141.446 60.5932 141.96 63.9651 142.181 67.2636C142.181 68.0699 142.181 68.8762 142.181 69.6825C142.184 70.33 141.949 70.9561 141.519 71.4417L140.05 73.0543C139.891 73.1867 139.767 73.3565 139.69 73.5485C139.613 73.7404 139.585 73.9484 139.609 74.1538V75.1067H179.581C179.781 75.107 179.978 75.0668 180.161 74.9885C180.344 74.9103 180.51 74.7957 180.647 74.6517C180.785 74.5077 180.891 74.3374 180.961 74.151C181.03 73.9646 181.061 73.766 181.051 73.5674C180.677 65.0152 177.119 56.9096 171.072 50.8363C165.024 44.7629 156.923 41.1588 148.353 40.7288ZM177.377 64.9913C177.285 65.0546 177.178 65.0936 177.067 65.1047C176.956 65.1158 176.844 65.0985 176.741 65.0546C176.638 65.0107 176.548 64.9415 176.48 64.8535C176.411 64.7655 176.366 64.6616 176.348 64.5515C174.623 59.8744 171.802 55.6771 168.119 52.3103C164.347 48.8265 159.783 46.3108 154.819 44.9802C154.67 44.9464 154.537 44.8623 154.444 44.742C154.35 44.6218 154.301 44.4728 154.305 44.3205C154.32 44.2245 154.357 44.133 154.412 44.0528C154.468 43.9726 154.54 43.9055 154.624 43.8565C154.708 43.8075 154.803 43.7776 154.9 43.7691C154.997 43.7607 155.095 43.7737 155.186 43.8074C160.329 45.1018 165.078 47.6273 169.021 51.1653C172.965 54.7033 175.984 59.1471 177.818 64.1116C177.852 64.2862 177.827 64.4672 177.747 64.6263C177.668 64.7854 177.537 64.9137 177.377 64.9913ZM179.14 72.981C178.962 72.9677 178.793 72.8957 178.66 72.7763C178.527 72.6569 178.438 72.4969 178.406 72.3213C178.309 71.2115 178.137 70.1095 177.891 69.0228C177.87 68.936 177.866 68.8458 177.88 68.7576C177.895 68.6694 177.927 68.585 177.975 68.5096C178.023 68.4342 178.086 68.3694 178.16 68.319C178.234 68.2686 178.318 68.2337 178.406 68.2165C178.589 68.1878 178.777 68.2231 178.938 68.3166C179.099 68.4101 179.222 68.5559 179.287 68.7296C179.531 69.866 179.703 71.0167 179.802 72.1747C179.812 72.271 179.803 72.3684 179.775 72.4613C179.747 72.5541 179.701 72.6405 179.64 72.7154C179.578 72.7904 179.502 72.8525 179.417 72.8981C179.331 72.9437 179.237 72.9718 179.14 72.981Z" fill="white"/>
<path d="M248.798 58.2476L290.607 162.847L279.879 160.502L319.19 57.8811H341.748L283.847 194L226.02 58.2476H248.798Z" fill="white"/>
<path d="M381.426 58.2476H400.457V188.063H381.426V58.2476Z" fill="white"/>
<path d="M442.046 58.2476H529.045V76.5727H494.51V188.063H475.258V76.5727H442.046V58.2476Z" fill="white"/>
<path d="M570.413 58.2476H655.648V76.5727H589.517V113.223H648.3V131.695H589.517V169.591H658.293V188.063H570.413V58.2476Z" fill="white"/>
<path d="M688.346 191.581C686.42 191.589 684.524 191.11 682.835 190.188C681.268 189.249 679.956 187.94 679.014 186.377C678.101 184.701 677.622 182.823 677.622 180.916C677.622 179.008 678.101 177.131 679.014 175.455C679.956 173.892 681.268 172.583 682.835 171.643C684.528 170.775 686.405 170.322 688.309 170.322C690.213 170.322 692.089 170.775 693.783 171.643C695.35 172.583 696.662 173.892 697.604 175.455C698.517 177.131 698.995 179.008 698.995 180.916C698.995 182.823 698.517 184.701 697.604 186.377C696.67 187.992 695.317 189.327 693.689 190.243C692.06 191.158 690.215 191.621 688.346 191.581ZM688.346 190.335C690.019 190.341 691.665 189.911 693.122 189.089C694.555 188.257 695.745 187.064 696.572 185.63C697.398 184.196 697.834 182.57 697.834 180.916C697.834 179.261 697.398 177.636 696.572 176.202C695.745 174.768 694.555 173.575 693.122 172.743C691.676 171.927 690.043 171.498 688.382 171.498C686.721 171.498 685.089 171.927 683.643 172.743C682.227 173.535 681.057 174.702 680.263 176.115C679.446 177.584 679.017 179.236 679.017 180.916C679.017 182.596 679.446 184.248 680.263 185.717C681.057 187.13 682.227 188.297 683.643 189.089C685.048 189.916 686.641 190.37 688.272 190.408L688.346 190.335ZM684.525 174.355H688.199C689.138 174.374 690.054 174.654 690.844 175.162C691.296 175.464 691.657 175.882 691.89 176.372C692.123 176.863 692.219 177.407 692.166 177.947C692.21 178.997 691.841 180.023 691.138 180.806C690.225 181.531 689.066 181.873 687.905 181.759H685.847V186.89H684.525V174.355ZM687.831 180.586C688.681 180.661 689.526 180.397 690.183 179.853C690.628 179.319 690.863 178.642 690.844 177.947C690.893 177.571 690.828 177.188 690.658 176.849C690.488 176.509 690.22 176.228 689.889 176.041C689.344 175.758 688.74 175.607 688.125 175.602H685.994V180.586H687.831ZM689.668 181.392L692.681 186.89H691.358L688.272 181.392H689.668Z" fill="white"/>
</svg>
